<svg xmlns="http://www.w3.org/2000/svg" xml:space="preserve" viewBox="0 0 100 125"><path d="M73.394 26.606c-6.248-6.248-14.556-9.689-23.393-9.689s-17.146 3.441-23.394 9.69a34 34 0 0 0-1.948 2.133c-.016.02-.035.034-.05.054l-.009.014C19.629 34.745 16.917 42.162 16.917 50c-.001 8.837 3.44 17.146 9.689 23.394 6.248 6.248 14.556 9.689 23.393 9.689s17.146-3.441 23.394-9.69c6.249-6.248 9.69-14.556 9.69-23.393s-3.44-17.146-9.689-23.394m.494 39.981c-2.54-1.666-5.459-3.04-8.638-4.084a43.2 43.2 0 0 0 1.777-10.505h11.98a28.8 28.8 0 0 1-5.119 14.589M20.992 51.998h13.062a43.3 43.3 0 0 0 1.681 10.191c-3.563 1.077-6.822 2.561-9.623 4.398a28.8 28.8 0 0 1-5.12-14.589M26.6 32.722c2.775 1.841 5.929 3.313 9.354 4.382a43.2 43.2 0 0 0-1.899 10.895H20.993A28.8 28.8 0 0 1 26.6 32.722M52 39.133c3.26-.108 6.348-.485 9.236-1.114a39.2 39.2 0 0 1 1.794 9.979H52zm0-4.027V22.921a36.5 36.5 0 0 1 7.806 11.318c-2.441.493-5.061.77-7.806.867m-4-.007a44.5 44.5 0 0 1-6.754-.788A36.6 36.6 0 0 1 48 24.044zm0 4.026v8.873h-9.949c.169-3.415.77-6.732 1.766-9.884A48 48 0 0 0 48 39.125m-9.949 12.873H48v8.187a50.4 50.4 0 0 0-8.383 1.019 39.2 39.2 0 0 1-1.566-9.206M48 64.188v11.768a36.6 36.6 0 0 1-7.033-10.948 47 47 0 0 1 7.033-.82m4 0c2.771.113 5.469.461 8.031 1.023-1.881 4.448-4.587 8.482-8.031 11.868zm0-4.003v-8.187h11.03a39.2 39.2 0 0 1-1.633 9.432A50 50 0 0 0 52 60.185m15.027-12.187a43.2 43.2 0 0 0-1.934-11.008c3.141-1.004 5.986-2.348 8.484-4.019a28.8 28.8 0 0 1 5.43 15.026zm3.95-18.131c-2.142 1.382-4.578 2.499-7.27 3.346a40.6 40.6 0 0 0-7.447-11.616c5.378 1.174 10.319 3.853 14.306 7.838.141.141.273.288.411.432M45.06 21.341a40.6 40.6 0 0 0-7.74 11.997c-2.96-.908-5.678-2.151-8.086-3.69.068-.069.133-.143.202-.212 4.309-4.31 9.735-7.092 15.624-8.095M28.631 69.722c2.448-1.56 5.288-2.825 8.396-3.752a40.7 40.7 0 0 0 8.033 12.689c-5.89-1.002-11.315-3.784-15.626-8.094-.275-.275-.54-.559-.803-.843m27.629 8.681a40.7 40.7 0 0 0 7.672-12.132c2.734.892 5.243 2.052 7.437 3.449-.263.284-.528.568-.804.844-3.986 3.986-8.927 6.665-14.305 7.839"/></svg>